<svg version="1.1" id="Layer_1" xmlns="http://www.w3.org/2000/svg" xmlns:xlink="http://www.w3.org/1999/xlink" viewBox="0 0 512 512" style="enable-background:new 0 0 512 512;" xml:space="preserve">
<circle style="fill:#79C9DB;" cx="256" cy="256" r="256"/>
<path style="fill:#99DBFF;" d="M256,512C114.615,512,0,397.385,0,256S114.615,0,256,0V512z"/>
<path style="fill:#31465E;" d="M396.364,167.869v-8.135c0-12.049-9.769-21.818-21.818-21.818c-12.049,0-21.818,9.769-21.818,21.818
	v8.135c-12.15,7.392-20.281,20.761-20.281,35.993V309.84c0,12.049,9.769,21.818,21.818,21.818c9.203,0,17.075-5.697,20.281-13.759
	c3.206,8.061,11.078,13.759,20.281,13.759c12.049,0,21.818-9.769,21.818-21.818V203.862
	C416.646,188.63,408.515,175.261,396.364,167.869z"/>
<path style="fill:#4D5CAE;" d="M133.236,169.271c-45.876,0-83.199,37.324-83.199,83.2v114.977c0,8.033,6.513,14.545,14.545,14.545
	h68.653c8.032,0,14.545-6.512,14.545-14.545V183.817C147.782,175.783,141.268,169.271,133.236,169.271z"/>
<g>
	<path style="fill:#312C90;" d="M448.486,241.455H216.407c-8.032,0-14.545,6.512-14.545,14.545v111.449
		c0,8.033,6.513,14.545,14.545,14.545h232.08c8.032,0,14.545-6.512,14.545-14.545V256
		C463.031,247.967,456.519,241.455,448.486,241.455z"/>
	<path style="fill:#312C90;" d="M265.281,129.124h-72.724c-8.032,0-14.545,6.512-14.545,14.545v217.312
		c0,8.033,6.513,14.545,14.545,14.545h72.724c8.032,0,14.545-6.512,14.545-14.545V143.67
		C279.827,135.636,273.313,129.124,265.281,129.124z"/>
</g>
<path style="fill:#4D5CAE;" d="M256,129.124h-63.443c-8.032,0-14.545,6.512-14.545,14.545v217.312
	c0,8.033,6.513,14.545,14.545,14.545H256V129.124z"/>
<path style="fill:#637492;" d="M304.815,271.369H98.909c-8.032,0-14.545,6.512-14.545,14.545v81.533
	c0,8.033,6.513,14.545,14.545,14.545h205.905c8.032,0,14.545-6.512,14.545-14.545v-81.533
	C319.36,277.881,312.847,271.369,304.815,271.369z"/>
<path style="fill:#84A2D1;" d="M256,271.369H98.909c-8.032,0-14.545,6.512-14.545,14.545v81.533c0,8.033,6.513,14.545,14.545,14.545
	H256V271.369z"/>
<path style="fill:#C55C51;" d="M26.98,370.455C68.998,454.375,155.76,512,256,512s187.002-57.625,229.02-141.545H26.98z"/>
<path style="fill:#FD774F;" d="M26.98,370.455C68.998,454.375,155.76,512,256,512V370.455H26.98z"/>
</svg>
